<?xml version="1.0" encoding="UTF-8" standalone="no"?>
<!DOCTYPE svg PUBLIC "-//W3C//DTD SVG 1.1//EN"
 "http://www.w3.org/Graphics/SVG/1.1/DTD/svg11.dtd">
<!-- Generated by graphviz version 5.0.0 (20220707.1540)
 -->
<!-- Title: dependencies Pages: 1 -->
<svg width="1725pt" height="247pt"
 viewBox="0.00 0.00 1725.00 246.80" xmlns="http://www.w3.org/2000/svg" xmlns:xlink="http://www.w3.org/1999/xlink">
<g id="graph0" class="graph" transform="scale(1 1) rotate(0) translate(4 242.8)">
<title>dependencies</title>
<polygon fill="white" stroke="transparent" points="-4,4 -4,-242.8 1721,-242.8 1721,4 -4,4"/>
<text text-anchor="middle" x="858.5" y="-8.2" font-family="sans-serif" font-size="14.00">dependencies</text>
<g id="clust1" class="cluster">
<title>cluster_AppModule</title>
<polygon fill="none" stroke="black" stroke-dasharray="1,5" points="8,-32.8 8,-230.8 1709,-230.8 1709,-32.8 8,-32.8"/>
</g>
<g id="clust14" class="cluster">
<title>cluster_AppModule_imports</title>
<polygon fill="none" stroke="black" points="1557,-40.8 1557,-92.8 1701,-92.8 1701,-40.8 1557,-40.8"/>
</g>
<g id="clust16" class="cluster">
<title>cluster_AppModule_bootstrap</title>
<polygon fill="none" stroke="black" points="819,-170.8 819,-222.8 943,-222.8 943,-170.8 819,-170.8"/>
</g>
<g id="clust2" class="cluster">
<title>cluster_AppModule_declarations</title>
<polygon fill="none" stroke="black" points="16,-40.8 16,-92.8 1549,-92.8 1549,-40.8 16,-40.8"/>
</g>
<!-- AboutComponent -->
<g id="node1" class="node">
<title>AboutComponent</title>
<polygon fill="#ffffb3" stroke="black" points="1541.33,-84.8 1424.67,-84.8 1424.67,-48.8 1541.33,-48.8 1541.33,-84.8"/>
<text text-anchor="middle" x="1483" y="-62.6" font-family="Times,serif" font-size="14.00">AboutComponent</text>
</g>
<!-- AppModule -->
<g id="node12" class="node">
<title>AppModule</title>
<polygon fill="#8dd3c7" stroke="black" points="922.66,-149.8 919.66,-153.8 898.66,-153.8 895.66,-149.8 839.34,-149.8 839.34,-113.8 922.66,-113.8 922.66,-149.8"/>
<text text-anchor="middle" x="881" y="-127.6" font-family="Times,serif" font-size="14.00">AppModule</text>
</g>
<!-- AboutComponent&#45;&gt;AppModule -->
<g id="edge1" class="edge">
<title>AboutComponent&#45;&gt;AppModule</title>
<path fill="none" stroke="black" d="M1483,-85.08C1483,-106.12 1483,-137.8 1483,-137.8 1483,-137.8 932.85,-137.8 932.85,-137.8"/>
<polygon fill="black" stroke="black" points="932.85,-134.3 922.85,-137.8 932.85,-141.3 932.85,-134.3"/>
</g>
<!-- AppComponent -->
<g id="node2" class="node">
<title>AppComponent</title>
<polygon fill="#ffffb3" stroke="black" points="1406.94,-84.8 1301.06,-84.8 1301.06,-48.8 1406.94,-48.8 1406.94,-84.8"/>
<text text-anchor="middle" x="1354" y="-62.6" font-family="Times,serif" font-size="14.00">AppComponent</text>
</g>
<!-- AppComponent&#45;&gt;AppModule -->
<g id="edge2" class="edge">
<title>AppComponent&#45;&gt;AppModule</title>
<path fill="none" stroke="black" d="M1354,-84.91C1354,-104.14 1354,-131.8 1354,-131.8 1354,-131.8 932.98,-131.8 932.98,-131.8"/>
<polygon fill="black" stroke="black" points="932.98,-128.3 922.98,-131.8 932.98,-135.3 932.98,-128.3"/>
</g>
<!-- BodyComponent -->
<g id="node3" class="node">
<title>BodyComponent</title>
<polygon fill="#ffffb3" stroke="black" points="1282.67,-84.8 1171.33,-84.8 1171.33,-48.8 1282.67,-48.8 1282.67,-84.8"/>
<text text-anchor="middle" x="1227" y="-62.6" font-family="Times,serif" font-size="14.00">BodyComponent</text>
</g>
<!-- BodyComponent&#45;&gt;AppModule -->
<g id="edge3" class="edge">
<title>BodyComponent&#45;&gt;AppModule</title>
<path fill="none" stroke="black" d="M1227,-84.82C1227,-102.17 1227,-125.8 1227,-125.8 1227,-125.8 932.74,-125.8 932.74,-125.8"/>
<polygon fill="black" stroke="black" points="932.74,-122.3 922.74,-125.8 932.74,-129.3 932.74,-122.3"/>
</g>
<!-- FooterComponent -->
<g id="node4" class="node">
<title>FooterComponent</title>
<polygon fill="#ffffb3" stroke="black" points="1152.88,-84.8 1035.12,-84.8 1035.12,-48.8 1152.88,-48.8 1152.88,-84.8"/>
<text text-anchor="middle" x="1094" y="-62.6" font-family="Times,serif" font-size="14.00">FooterComponent</text>
</g>
<!-- FooterComponent&#45;&gt;AppModule -->
<g id="edge4" class="edge">
<title>FooterComponent&#45;&gt;AppModule</title>
<path fill="none" stroke="black" d="M1094,-85.04C1094,-100.37 1094,-119.8 1094,-119.8 1094,-119.8 932.83,-119.8 932.83,-119.8"/>
<polygon fill="black" stroke="black" points="932.83,-116.3 922.83,-119.8 932.83,-123.3 932.83,-116.3"/>
</g>
<!-- InfoToolComponent -->
<g id="node5" class="node">
<title>InfoToolComponent</title>
<polygon fill="#ffffb3" stroke="black" points="1017.6,-84.8 886.4,-84.8 886.4,-48.8 1017.6,-48.8 1017.6,-84.8"/>
<text text-anchor="middle" x="952" y="-62.6" font-family="Times,serif" font-size="14.00">InfoToolComponent</text>
</g>
<!-- InfoToolComponent&#45;&gt;AppModule -->
<g id="edge5" class="edge">
<title>InfoToolComponent&#45;&gt;AppModule</title>
<path fill="none" stroke="black" d="M904.64,-84.91C904.64,-84.91 904.64,-103.79 904.64,-103.79"/>
<polygon fill="black" stroke="black" points="901.14,-103.79 904.64,-113.79 908.14,-103.79 901.14,-103.79"/>
</g>
<!-- LoginComponent -->
<g id="node6" class="node">
<title>LoginComponent</title>
<polygon fill="#ffffb3" stroke="black" points="868.27,-84.8 753.73,-84.8 753.73,-48.8 868.27,-48.8 868.27,-84.8"/>
<text text-anchor="middle" x="811" y="-62.6" font-family="Times,serif" font-size="14.00">LoginComponent</text>
</g>
<!-- LoginComponent&#45;&gt;AppModule -->
<g id="edge6" class="edge">
<title>LoginComponent&#45;&gt;AppModule</title>
<path fill="none" stroke="black" d="M853.78,-84.91C853.78,-84.91 853.78,-103.79 853.78,-103.79"/>
<polygon fill="black" stroke="black" points="850.28,-103.79 853.78,-113.79 857.28,-103.79 850.28,-103.79"/>
</g>
<!-- NavBarComponent -->
<g id="node7" class="node">
<title>NavBarComponent</title>
<polygon fill="#ffffb3" stroke="black" points="735.37,-84.8 610.63,-84.8 610.63,-48.8 735.37,-48.8 735.37,-84.8"/>
<text text-anchor="middle" x="673" y="-62.6" font-family="Times,serif" font-size="14.00">NavBarComponent</text>
</g>
<!-- NavBarComponent&#45;&gt;AppModule -->
<g id="edge7" class="edge">
<title>NavBarComponent&#45;&gt;AppModule</title>
<path fill="none" stroke="black" d="M673,-85.04C673,-100.37 673,-119.8 673,-119.8 673,-119.8 828.91,-119.8 828.91,-119.8"/>
<polygon fill="black" stroke="black" points="828.91,-123.3 838.91,-119.8 828.91,-116.3 828.91,-123.3"/>
</g>
<!-- SearcherComponent -->
<g id="node8" class="node">
<title>SearcherComponent</title>
<polygon fill="#ffffb3" stroke="black" points="592.3,-84.8 461.7,-84.8 461.7,-48.8 592.3,-48.8 592.3,-84.8"/>
<text text-anchor="middle" x="527" y="-62.6" font-family="Times,serif" font-size="14.00">SearcherComponent</text>
</g>
<!-- SearcherComponent&#45;&gt;AppModule -->
<g id="edge8" class="edge">
<title>SearcherComponent&#45;&gt;AppModule</title>
<path fill="none" stroke="black" d="M527,-84.82C527,-102.17 527,-125.8 527,-125.8 527,-125.8 829,-125.8 829,-125.8"/>
<polygon fill="black" stroke="black" points="829,-129.3 839,-125.8 829,-122.3 829,-129.3"/>
</g>
<!-- ToolComponent -->
<g id="node9" class="node">
<title>ToolComponent</title>
<polygon fill="#ffffb3" stroke="black" points="443.77,-84.8 336.23,-84.8 336.23,-48.8 443.77,-48.8 443.77,-84.8"/>
<text text-anchor="middle" x="390" y="-62.6" font-family="Times,serif" font-size="14.00">ToolComponent</text>
</g>
<!-- ToolComponent&#45;&gt;AppModule -->
<g id="edge9" class="edge">
<title>ToolComponent&#45;&gt;AppModule</title>
<path fill="none" stroke="black" d="M390,-84.91C390,-104.14 390,-131.8 390,-131.8 390,-131.8 829.14,-131.8 829.14,-131.8"/>
<polygon fill="black" stroke="black" points="829.14,-135.3 839.14,-131.8 829.14,-128.3 829.14,-135.3"/>
</g>
<!-- ToolFormComponent -->
<g id="node10" class="node">
<title>ToolFormComponent</title>
<polygon fill="#ffffb3" stroke="black" points="318.11,-84.8 179.89,-84.8 179.89,-48.8 318.11,-48.8 318.11,-84.8"/>
<text text-anchor="middle" x="249" y="-62.6" font-family="Times,serif" font-size="14.00">ToolFormComponent</text>
</g>
<!-- ToolFormComponent&#45;&gt;AppModule -->
<g id="edge10" class="edge">
<title>ToolFormComponent&#45;&gt;AppModule</title>
<path fill="none" stroke="black" d="M249,-85.08C249,-106.12 249,-137.8 249,-137.8 249,-137.8 829.04,-137.8 829.04,-137.8"/>
<polygon fill="black" stroke="black" points="829.04,-141.3 839.04,-137.8 829.04,-134.3 829.04,-141.3"/>
</g>
<!-- UserFormComponent -->
<g id="node11" class="node">
<title>UserFormComponent</title>
<polygon fill="#ffffb3" stroke="black" points="162.1,-84.8 23.9,-84.8 23.9,-48.8 162.1,-48.8 162.1,-84.8"/>
<text text-anchor="middle" x="93" y="-62.6" font-family="Times,serif" font-size="14.00">UserFormComponent</text>
</g>
<!-- UserFormComponent&#45;&gt;AppModule -->
<g id="edge11" class="edge">
<title>UserFormComponent&#45;&gt;AppModule</title>
<path fill="none" stroke="black" d="M93,-85.05C93,-107.82 93,-143.8 93,-143.8 93,-143.8 829.19,-143.8 829.19,-143.8"/>
<polygon fill="black" stroke="black" points="829.19,-147.3 839.19,-143.8 829.19,-140.3 829.19,-147.3"/>
</g>
<!-- AppComponent  -->
<g id="node14" class="node">
<title>AppComponent </title>
<polygon fill="#80b1d3" stroke="black" points="935.44,-214.8 826.56,-214.8 826.56,-178.8 935.44,-178.8 935.44,-214.8"/>
<text text-anchor="middle" x="881" y="-192.6" font-family="Times,serif" font-size="14.00">AppComponent </text>
</g>
<!-- AppModule&#45;&gt;AppComponent  -->
<g id="edge13" class="edge">
<title>AppModule&#45;&gt;AppComponent </title>
<path fill="none" stroke="black" stroke-dasharray="1,5" d="M881,-149.91C881,-149.91 881,-168.79 881,-168.79"/>
<polygon fill="black" stroke="black" points="877.5,-168.79 881,-178.79 884.5,-168.79 877.5,-168.79"/>
</g>
<!-- AppRoutingModule -->
<g id="node13" class="node">
<title>AppRoutingModule</title>
<polygon fill="#8dd3c7" stroke="black" points="1693.28,-84.8 1690.28,-88.8 1669.28,-88.8 1666.28,-84.8 1564.72,-84.8 1564.72,-48.8 1693.28,-48.8 1693.28,-84.8"/>
<text text-anchor="middle" x="1629" y="-62.6" font-family="Times,serif" font-size="14.00">AppRoutingModule</text>
</g>
<!-- AppRoutingModule&#45;&gt;AppModule -->
<g id="edge12" class="edge">
<title>AppRoutingModule&#45;&gt;AppModule</title>
<path fill="none" stroke="black" d="M1629,-85.05C1629,-107.82 1629,-143.8 1629,-143.8 1629,-143.8 932.82,-143.8 932.82,-143.8"/>
<polygon fill="black" stroke="black" points="932.82,-140.3 922.82,-143.8 932.82,-147.3 932.82,-140.3"/>
</g>
</g>
</svg>
